<svg
      width="403"
      height="177"
      viewBox="0 0 403 177"
      fill="none"
      xmlns="http://www.w3.org/2000/svg"
    >
      <path
        d="M13.1443 170.933C-4.77965 158.393 -2.63797 146.775 9.19155 141.261C15.8466 137.662 23.6371 135.201 31.3988 132.292C49.6677 124.921 65.68 114.815 80.7436 100.404C91.9695 88.5556 102.491 74.4614 114.249 58.7979C120.961 49.0515 127.832 39.0602 134.587 31.2285C138.238 26.7656 141.357 23.9007 143.786 22.8929C147.021 21.5684 147.682 25.5275 146.891 32.4234C145.943 41.2773 144.376 51.4557 143.398 61.4325C142.982 66.0394 142.809 70.5887 143.068 74.5046C143.671 81.9476 147.265 81.9908 151.692 75.0517C156.105 67.839 159.942 57.5022 164.269 46.7048C167.977 36.872 171.93 26.7224 176.257 16.4864C177.809 12.6282 179.534 9.12979 181.158 6.06332C184.68 -0.775053 186.864 -1.84039 187.339 2.92488C187.856 7.58936 187.396 14.4277 186.706 22.0867C183.745 51.8012 180.899 84.4814 188.417 119.292C191.277 131.659 194.612 143.68 195.661 154.434C196.955 166.096 194.626 172.085 187.281 168.874C180.727 166.038 174.632 156.68 171.039 144.889C167.906 134.222 166.296 123.28 165.261 112.828C164.887 108.754 164.6 104.665 164.211 100.951C163.45 92.5003 161.754 90.2688 158.692 93.9976C156.752 96.3442 154.984 100.332 153.474 105.025C150.772 113.159 148.372 121.596 145.669 129.255C143.873 134.178 141.86 138.915 139.503 142.384C133.897 150.691 124.051 149.727 122.37 132.926C121.78 125.181 122.427 116.946 122.959 109.301C123.304 104.781 123.908 100.188 124.382 95.8259C124.555 94.2855 124.569 92.8746 124.54 91.5789C124.454 87.663 122.959 87.7638 120.214 92.0972C117.555 96.1858 114.752 100.433 112.394 104.809C105.078 117.824 97.5321 130.09 89.2097 141.42C82.0948 150.49 74.9079 159.473 66.0825 166.787C57.7458 173.236 47.5548 177.512 35.1504 176.951C25.6638 176.533 16.7952 173.539 13.1443 170.976V170.933Z"
        fill="#000000"
      />
    </svg>