<svg width="134" height="134" viewBox="0 0 134 134" fill="none" xmlns="http://www.w3.org/2000/svg">
<path d="M48.25 83.5H19.25V112.5" stroke="#010101" stroke-width="1.5" stroke-linecap="round" stroke-linejoin="round"/>
<path d="M116.625 72.5415C115.256 84.7867 109.403 96.0919 100.194 104.278C90.9847 112.464 79.0713 116.951 66.75 116.875" stroke="#010101" stroke-width="1.5" stroke-linecap="round" stroke-linejoin="round"/>
<path d="M19.7012 83.625C23.1406 93.3532 29.5127 101.775 37.9391 107.73C46.3656 113.685 56.4316 116.88 66.7499 116.875" stroke="#010101" stroke-width="1.5" stroke-linecap="round" stroke-linejoin="round"/>
<path d="M85.25 50.5H114.25V21.5" stroke="#010101" stroke-width="1.5" stroke-linecap="round" stroke-linejoin="round"/>
<path d="M17.1523 61.9017C18.414 49.6241 24.1832 38.2503 33.3444 29.9797C42.5056 21.709 54.408 17.1289 66.7503 17.125" stroke="#010101" stroke-width="1.5" stroke-linecap="round" stroke-linejoin="round"/>
<path d="M113.799 50.375C110.359 40.6468 103.987 32.2248 95.5608 26.2697C87.1344 20.3146 77.0683 17.1196 66.75 17.125" stroke="#010101" stroke-width="1.5" stroke-linecap="round" stroke-linejoin="round"/>
<path fill-rule="evenodd" clip-rule="evenodd" d="M70.5705 49.5718C68.0953 48.1427 65.0457 48.1427 62.5705 49.5718L53.25 54.953C50.7748 56.3821 49.25 59.0231 49.25 61.8812V72.6436C49.25 75.5017 50.7748 78.1427 53.25 79.5718L62.5705 84.953C65.0457 86.3821 68.0953 86.3821 70.5705 84.953L79.891 79.5718C82.3662 78.1427 83.891 75.5017 83.891 72.6436V61.8812C83.891 59.0231 82.3662 56.3821 79.891 54.953L70.5705 49.5718ZM66.5705 77.2624C72.0934 77.2624 76.5705 72.7852 76.5705 67.2624C76.5705 61.7395 72.0934 57.2624 66.5705 57.2624C61.0477 57.2624 56.5705 61.7395 56.5705 67.2624C56.5705 72.7852 61.0477 77.2624 66.5705 77.2624Z" fill="#010101" fill-opacity="0.5"/>
<circle cx="66.6944" cy="66.9444" r="4.44444" fill="#010101" fill-opacity="0.5"/>
</svg>
